<?xml version="1.0" encoding="utf-8"?>
<!-- Generator: Adobe Illustrator 16.0.0, SVG Export Plug-In . SVG Version: 6.00 Build 0)  -->
<!DOCTYPE svg PUBLIC "-//W3C//DTD SVG 1.1//EN" "http://www.w3.org/Graphics/SVG/1.1/DTD/svg11.dtd">
<svg version="1.1" id="Layer_1" xmlns="http://www.w3.org/2000/svg" xmlns:xlink="http://www.w3.org/1999/xlink" x="0px" y="0px"
	 width="1400px" height="1080px" viewBox="0 0 1400 1080" enable-background="new 0 0 1400 1080" xml:space="preserve">
<rect x="103.188" y="722.415" opacity="0.6" fill="#C0DFE2" stroke="#594A42" stroke-width="0.846" stroke-miterlimit="10" width="63.233" height="63.23"/>
<rect x="675.527" y="985.56" opacity="0.6" fill="#C0DFE2" stroke="#594A42" stroke-width="0.846" stroke-miterlimit="10" width="78.302" height="78.299"/>
<ellipse opacity="0.6" fill="#C0DFE2" stroke="#594A42" stroke-width="0.846" stroke-miterlimit="10" cx="535.418" cy="898.216" rx="23.136" ry="23.131"/>
<ellipse opacity="0.6" fill="#C0DFE2" stroke="#594A42" stroke-width="0.846" stroke-miterlimit="10" cx="535.418" cy="945.813" rx="23.136" ry="23.131"/>
<circle opacity="0.6" fill="#C0DFE2" stroke="#594A42" stroke-width="0.846" stroke-miterlimit="10" cx="385.661" cy="937.058" r="23.136"/>
<circle opacity="0.6" fill="#C0DFE2" stroke="#594A42" stroke-width="0.846" stroke-miterlimit="10" cx="680.069" cy="934.411" r="23.133"/>
<circle opacity="0.6" fill="#C0DFE2" stroke="#594A42" stroke-width="0.846" stroke-miterlimit="10" cx="338.946" cy="714.944" r="23.134"/>
<circle opacity="0.6" fill="#C0DFE2" stroke="#594A42" stroke-width="0.846" stroke-miterlimit="10" cx="233.177" cy="715.823" r="23.134"/>
<path opacity="0.6" fill="#C0DFE2" stroke="#594A42" stroke-width="0.846" stroke-miterlimit="10" d="M322.764,851.612
	c0-15.723,12.748-28.471,28.475-28.471c15.722,0,28.469,12.748,28.469,28.471c0,15.725-12.747,28.473-28.469,28.473
	C335.511,880.085,322.764,867.337,322.764,851.612z"/>
<circle opacity="0.6" fill="#C0DFE2" stroke="#594A42" stroke-width="0.846" stroke-miterlimit="10" cx="287.773" cy="851.612" r="28.472"/>
<circle opacity="0.6" fill="#C0DFE2" stroke="#594A42" stroke-width="0.846" stroke-miterlimit="10" cx="225.196" cy="851.612" r="28.472"/>
<circle opacity="0.6" fill="#C0DFE2" stroke="#594A42" stroke-width="0.846" stroke-miterlimit="10" cx="160.854" cy="851.612" r="28.472"/>
<rect x="29.149" y="722.415" opacity="0.6" fill="#C0DFE2" stroke="#594A42" stroke-width="0.846" stroke-miterlimit="10" width="63.235" height="63.23"/>
<rect x="392.061" y="781.438" opacity="0.6" fill="#C0DFE2" stroke="#594A42" stroke-width="0.846" stroke-miterlimit="10" width="63.236" height="63.232"/>
<rect x="394.646" y="692.417" opacity="0.6" fill="#C0DFE2" stroke="#594A42" stroke-width="0.846" stroke-miterlimit="10" width="63.236" height="63.232"/>
<rect x="483.839" y="781.438" opacity="0.6" fill="#C0DFE2" stroke="#594A42" stroke-width="0.846" stroke-miterlimit="10" width="63.238" height="63.229"/>
<rect x="574.6" y="781.438" opacity="0.6" fill="#C0DFE2" stroke="#594A42" stroke-width="0.846" stroke-miterlimit="10" width="63.239" height="63.229"/>
<rect x="484.553" y="692.417" opacity="0.6" fill="#C0DFE2" stroke="#594A42" stroke-width="0.846" stroke-miterlimit="10" width="63.239" height="63.23"/>
<rect x="574.467" y="692.417" opacity="0.6" fill="#C0DFE2" stroke="#594A42" stroke-width="0.846" stroke-miterlimit="10" width="63.238" height="63.23"/>
<rect x="103.037" y="907.476" opacity="0.6" fill="#C0DFE2" stroke="#594A42" stroke-width="0.846" stroke-miterlimit="10" width="63.232" height="63.232"/>
<rect x="28.998" y="906.595" opacity="0.6" fill="#C0DFE2" stroke="#594A42" stroke-width="0.846" stroke-miterlimit="10" width="63.232" height="63.23"/>
<rect x="215.653" y="953.901" opacity="0.6" fill="#C0DFE2" stroke="#594A42" stroke-width="0.846" stroke-miterlimit="10" width="142.368" height="114.939"/>
<rect x="697.36" y="545.37" opacity="0.6" fill="#C0DFE2" stroke="#594A42" stroke-width="0.846" stroke-miterlimit="10" width="63.219" height="63.227"/>
<rect x="631.252" y="545.37" opacity="0.6" fill="#C0DFE2" stroke="#594A42" stroke-width="0.846" stroke-miterlimit="10" width="63.222" height="63.227"/>
<rect x="556.326" y="545.37" opacity="0.6" fill="#C0DFE2" stroke="#594A42" stroke-width="0.846" stroke-miterlimit="10" width="63.225" height="63.227"/>
<rect x="488.452" y="545.37" opacity="0.6" fill="#C0DFE2" stroke="#594A42" stroke-width="0.846" stroke-miterlimit="10" width="63.223" height="63.227"/>
<rect x="409.121" y="545.37" opacity="0.6" fill="#C0DFE2" stroke="#594A42" stroke-width="0.846" stroke-miterlimit="10" width="63.221" height="63.227"/>
<rect x="341.448" y="545.37" opacity="0.6" fill="#C0DFE2" stroke="#594A42" stroke-width="0.846" stroke-miterlimit="10" width="63.217" height="63.227"/>
<rect x="222.261" y="545.37" opacity="0.6" fill="#C0DFE2" stroke="#594A42" stroke-width="0.846" stroke-miterlimit="10" width="63.218" height="63.227"/>
<rect x="156.155" y="545.37" opacity="0.6" fill="#C0DFE2" stroke="#594A42" stroke-width="0.846" stroke-miterlimit="10" width="63.218" height="63.227"/>
<rect x="81.237" y="545.37" opacity="0.6" fill="#C0DFE2" stroke="#594A42" stroke-width="0.846" stroke-miterlimit="10" width="63.217" height="63.227"/>
<rect x="20.729" y="545.37" opacity="0.6" fill="#C0DFE2" stroke="#594A42" stroke-width="0.846" stroke-miterlimit="10" width="63.218" height="63.227"/>
<rect x="681.018" y="798.196" opacity="0.6" fill="#C0DFE2" stroke="#594A42" stroke-width="0.846" stroke-miterlimit="10" width="48.048" height="71.182"/>
<rect x="681.018" y="683.614" opacity="0.6" fill="#C0DFE2" stroke="#594A42" stroke-width="0.846" stroke-miterlimit="10" width="48.048" height="71.18"/>
<rect x="565.343" y="916.532" opacity="0.6" fill="#C0DFE2" stroke="#594A42" stroke-width="0.846" stroke-miterlimit="10" width="85.424" height="28.471"/>
<rect x="419.021" y="916.532" opacity="0.6" fill="#C0DFE2" stroke="#594A42" stroke-width="0.846" stroke-miterlimit="10" width="85.419" height="28.471"/>
<rect x="386.409" y="639.778" opacity="0.6" fill="#C0DFE2" stroke="#594A42" stroke-width="0.846" stroke-miterlimit="10" width="72.071" height="28.469"/>
<rect x="534.494" y="639.778" opacity="0.6" fill="#C0DFE2" stroke="#594A42" stroke-width="0.846" stroke-miterlimit="10" width="72.073" height="28.469"/>
<rect x="139.132" y="1012.624" opacity="0.6" fill="#C0DFE2" stroke="#594A42" stroke-width="0.846" stroke-miterlimit="10" width="68.512" height="28.473"/>
<rect x="24.551" y="1012.624" opacity="0.6" fill="#C0DFE2" stroke="#594A42" stroke-width="0.846" stroke-miterlimit="10" width="68.512" height="28.473"/>
<polygon opacity="0.6" fill="#C0DFE2" stroke="#594A42" stroke-width="0.846" stroke-miterlimit="10" points="61.721,685.194 
	37.697,685.194 37.697,668.151 20.73,668.151 20.73,637.149 61.721,637.149 "/>
<polygon opacity="0.6" fill="#C0DFE2" stroke="#594A42" stroke-width="0.846" stroke-miterlimit="10" points="129.346,683.415 
	99.982,683.415 99.982,639.819 197.858,639.819 197.858,668.29 129.346,668.29 "/>
<rect x="594.708" y="997.499" opacity="0.6" fill="#C0DFE2" stroke="#594A42" stroke-width="0.846" stroke-miterlimit="10" width="69.404" height="47.158"/>
<rect x="518.018" y="997.499" opacity="0.6" fill="#C0DFE2" stroke="#594A42" stroke-width="0.846" stroke-miterlimit="10" width="69.406" height="47.158"/>
<rect x="440.449" y="997.499" opacity="0.6" fill="#C0DFE2" stroke="#594A42" stroke-width="0.846" stroke-miterlimit="10" width="69.405" height="47.158"/>
<rect x="362.884" y="997.499" opacity="0.6" fill="#C0DFE2" stroke="#594A42" stroke-width="0.846" stroke-miterlimit="10" width="69.4" height="47.158"/>
<rect x="486.679" y="40.07" opacity="0.6" fill="#C0DFE2" stroke="#594A42" stroke-width="0.846" stroke-miterlimit="10" width="63.234" height="63.233"/>
<rect x="581.87" y="40.07" opacity="0.6" fill="#C0DFE2" stroke="#594A42" stroke-width="0.846" stroke-miterlimit="10" width="63.233" height="63.233"/>
<rect x="673.161" y="40.781" opacity="0.6" fill="#C0DFE2" stroke="#594A42" stroke-width="0.846" stroke-miterlimit="10" width="63.232" height="63.234"/>
<rect x="480.077" y="214.289" opacity="0.6" fill="#C0DFE2" stroke="#594A42" stroke-width="0.846" stroke-miterlimit="10" width="63.234" height="63.234"/>
<rect x="559.269" y="214.289" opacity="0.6" fill="#C0DFE2" stroke="#594A42" stroke-width="0.846" stroke-miterlimit="10" width="63.233" height="63.234"/>
<rect x="659.822" y="209.831" opacity="0.6" fill="#C0DFE2" stroke="#594A42" stroke-width="0.846" stroke-miterlimit="10" width="63.233" height="63.234"/>
<rect x="660.705" y="305.049" opacity="0.6" fill="#C0DFE2" stroke="#594A42" stroke-width="0.846" stroke-miterlimit="10" width="63.233" height="63.237"/>
<rect x="559.269" y="303.99" opacity="0.6" fill="#C0DFE2" stroke="#594A42" stroke-width="0.846" stroke-miterlimit="10" width="63.233" height="63.237"/>
<rect x="489.867" y="303.99" opacity="0.6" fill="#C0DFE2" stroke="#594A42" stroke-width="0.846" stroke-miterlimit="10" width="63.233" height="63.238"/>
<rect x="490.168" y="303.99" opacity="0.6" fill="#C0DFE2" stroke="#594A42" stroke-width="0.846" stroke-miterlimit="10" width="63.233" height="63.239"/>
<rect x="413.677" y="332.465" opacity="0.6" fill="#C0DFE2" stroke="#594A42" stroke-width="0.846" stroke-miterlimit="10" width="63.237" height="63.236"/>
<rect x="338.902" y="350.261" opacity="0.6" fill="#C0DFE2" stroke="#594A42" stroke-width="0.846" stroke-miterlimit="10" width="63.235" height="63.237"/>
<rect x="595.163" y="457.93" opacity="0.6" fill="#C0DFE2" stroke="#594A42" stroke-width="0.846" stroke-miterlimit="10" width="63.234" height="63.234"/>
<rect x="338.902" y="252.38" opacity="0.6" fill="#C0DFE2" stroke="#594A42" stroke-width="0.846" stroke-miterlimit="10" width="63.234" height="63.237"/>
<rect x="510.634" y="457.93" opacity="0.6" fill="#C0DFE2" stroke="#594A42" stroke-width="0.846" stroke-miterlimit="10" width="63.233" height="63.235"/>
<rect x="428.773" y="457.93" opacity="0.6" fill="#C0DFE2" stroke="#594A42" stroke-width="0.846" stroke-miterlimit="10" width="63.235" height="63.235"/>
<rect x="342.462" y="457.93" opacity="0.6" fill="#C0DFE2" stroke="#594A42" stroke-width="0.846" stroke-miterlimit="10" width="63.234" height="63.235"/>
<rect x="220.002" y="458.429" opacity="0.6" fill="#C0DFE2" stroke="#594A42" stroke-width="0.846" stroke-miterlimit="10" width="63.233" height="63.235"/>
<rect x="133.692" y="458.429" opacity="0.6" fill="#C0DFE2" stroke="#594A42" stroke-width="0.846" stroke-miterlimit="10" width="63.234" height="63.236"/>
<rect x="196.868" y="350.359" opacity="0.6" fill="#C0DFE2" stroke="#594A42" stroke-width="0.846" stroke-miterlimit="10" width="63.233" height="63.238"/>
<rect x="119.372" y="350.359" opacity="0.6" fill="#C0DFE2" stroke="#594A42" stroke-width="0.846" stroke-miterlimit="10" width="63.233" height="63.236"/>
<rect x="198.706" y="251.588" opacity="0.6" fill="#C0DFE2" stroke="#594A42" stroke-width="0.846" stroke-miterlimit="10" width="63.234" height="63.239"/>
<rect x="118.566" y="251.588" opacity="0.6" fill="#C0DFE2" stroke="#594A42" stroke-width="0.846" stroke-miterlimit="10" width="63.233" height="63.239"/>
<rect x="53.839" y="129.484" opacity="0.6" fill="#C0DFE2" stroke="#594A42" stroke-width="0.846" stroke-miterlimit="10" width="63.234" height="63.235"/>
<rect x="53.034" y="30.719" opacity="0.6" fill="#C0DFE2" stroke="#594A42" stroke-width="0.846" stroke-miterlimit="10" width="63.233" height="63.234"/>
<rect x="13.846" y="247.449" opacity="0.6" fill="#C0DFE2" stroke="#594A42" stroke-width="0.846" stroke-miterlimit="10" width="78.299" height="78.303"/>
<rect x="13.846" y="347.323" opacity="0.6" fill="#C0DFE2" stroke="#594A42" stroke-width="0.846" stroke-miterlimit="10" width="78.3" height="78.303"/>
<rect x="13.846" y="449.571" opacity="0.6" fill="#C0DFE2" stroke="#594A42" stroke-width="0.846" stroke-miterlimit="10" width="78.3" height="78.301"/>
<rect x="674.28" y="445.204" opacity="0.6" fill="#C0DFE2" stroke="#594A42" stroke-width="0.846" stroke-miterlimit="10" width="78.301" height="78.3"/>
<circle opacity="0.6" fill="#C0DFE2" stroke="#594A42" stroke-width="0.846" stroke-miterlimit="10" cx="450.464" cy="259.377" r="23.135"/>
<path opacity="0.6" fill="#C0DFE2" stroke="#594A42" stroke-width="0.846" stroke-miterlimit="10" d="M666.459,416.425
	c0,11.055-8.962,20.019-20.019,20.019c-11.058,0-20.021-8.964-20.021-20.019c0-11.059,8.963-20.023,20.021-20.023
	C657.497,396.401,666.459,405.366,666.459,416.425z"/>
<rect x="227.75" y="3.489" opacity="0.6" fill="#C0DFE2" stroke="#594A42" stroke-width="0.846" stroke-miterlimit="10" width="168.169" height="162.1"/>
<rect x="186.819" y="3.489" fill="none" stroke="#221F1F" stroke-width="0.8247" stroke-miterlimit="10" width="248.25" height="207.982"/>
<line fill="none" stroke="#221F1F" stroke-width="0.7553" stroke-miterlimit="10" x1="269.691" y1="211.856" x2="269.691" y2="165.448"/>
<line fill="none" stroke="#221F1F" stroke-width="0.7581" stroke-miterlimit="10" x1="356.073" y1="211.856" x2="356.073" y2="165.108"/>
<rect x="13.846" y="3.489" fill="none" stroke="#221F1F" stroke-width="0.7321" stroke-miterlimit="10" width="139.162" height="222.604"/>
<line fill="none" stroke="#221F1F" stroke-width="0.8247" stroke-miterlimit="10" x1="186.464" y1="165.787" x2="434.794" y2="165.787"/>
<polygon fill="none" stroke="#221F1F" stroke-width="0.7321" stroke-miterlimit="10" points="769.239,388.089 629.098,388.089 
	629.098,203.371 465.757,203.371 465.757,3.001 769.01,3.001 "/>
<circle opacity="0.6" fill="#C0DFE2" stroke="#594A42" stroke-width="0.846" stroke-miterlimit="10" cx="1307.666" cy="694.517" r="28.671"/>
<circle opacity="0.6" fill="#C0DFE2" stroke="#594A42" stroke-width="0.846" stroke-miterlimit="10" cx="1307.666" cy="763.897" r="28.671"/>
<rect x="1192.604" y="664.028" opacity="0.6" fill="#C0DFE2" stroke="#594A42" stroke-width="0.846" stroke-miterlimit="10" width="76.779" height="40.863"/>
<rect x="1106.077" y="664.028" opacity="0.6" fill="#C0DFE2" stroke="#594A42" stroke-width="0.846" stroke-miterlimit="10" width="76.777" height="40.863"/>
<rect x="1019.548" y="664.028" opacity="0.6" fill="#C0DFE2" stroke="#594A42" stroke-width="0.846" stroke-miterlimit="10" width="76.777" height="40.863"/>
<rect x="933.019" y="664.028" opacity="0.6" fill="#C0DFE2" stroke="#594A42" stroke-width="0.846" stroke-miterlimit="10" width="76.777" height="40.863"/>
<circle opacity="0.6" fill="#C0DFE2" stroke="#594A42" stroke-width="0.846" stroke-miterlimit="10" cx="1224.409" cy="763.897" r="28.67"/>
<circle opacity="0.6" fill="#C0DFE2" stroke="#594A42" stroke-width="0.846" stroke-miterlimit="10" cx="1141.151" cy="763.897" r="28.67"/>
<circle opacity="0.6" fill="#C0DFE2" stroke="#594A42" stroke-width="0.846" stroke-miterlimit="10" cx="1057.895" cy="763.897" r="28.669"/>
<circle opacity="0.6" fill="#C0DFE2" stroke="#594A42" stroke-width="0.846" stroke-miterlimit="10" cx="974.637" cy="763.897" r="28.669"/>
<circle opacity="0.6" fill="#C0DFE2" stroke="#594A42" stroke-width="0.846" stroke-miterlimit="10" cx="891.809" cy="763.897" r="28.669"/>
<path opacity="0.6" fill="#C0DFE2" stroke="#594A42" stroke-width="0.846" stroke-miterlimit="10" d="M836.792,763.897
	c0,15.834-12.836,28.67-28.666,28.67c-15.834,0-28.67-12.836-28.67-28.67s12.836-28.668,28.67-28.668
	C823.956,735.229,836.792,748.063,836.792,763.897z"/>
<circle opacity="0.6" fill="#C0DFE2" stroke="#594A42" stroke-width="0.846" stroke-miterlimit="10" cx="891.81" cy="694.517" r="28.67"/>
<path opacity="0.6" fill="#C0DFE2" stroke="#594A42" stroke-width="0.846" stroke-miterlimit="10" d="M836.792,835.173
	c0,15.832-12.836,28.672-28.666,28.672c-15.834,0-28.67-12.84-28.67-28.672c0-15.834,12.836-28.672,28.67-28.672
	C823.956,806.501,836.792,819.339,836.792,835.173z"/>
<path opacity="0.6" fill="#C0DFE2" stroke="#594A42" stroke-width="0.846" stroke-miterlimit="10" d="M836.792,908.343
	c0,15.834-12.836,28.672-28.666,28.672c-15.834,0-28.67-12.838-28.67-28.672c0-15.832,12.836-28.668,28.67-28.668
	C823.956,879.675,836.792,892.511,836.792,908.343z"/>
<path opacity="0.6" fill="#C0DFE2" stroke="#594A42" stroke-width="0.846" stroke-miterlimit="10" d="M920.478,835.173
	c0,15.832-12.834,28.672-28.668,28.672s-28.67-12.84-28.67-28.672c0-15.834,12.836-28.672,28.67-28.672
	S920.478,819.339,920.478,835.173z"/>
<path opacity="0.6" fill="#C0DFE2" stroke="#594A42" stroke-width="0.846" stroke-miterlimit="10" d="M937.079,908.343
	c0,15.834-12.836,28.672-28.668,28.672c-15.834,0-28.67-12.838-28.67-28.672c0-15.832,12.836-28.668,28.67-28.668
	C924.243,879.675,937.079,892.511,937.079,908.343z"/>
<circle opacity="0.6" fill="#C0DFE2" stroke="#594A42" stroke-width="0.846" stroke-miterlimit="10" cx="1231.347" cy="835.175" r="28.67"/>
<circle opacity="0.6" fill="#C0DFE2" stroke="#594A42" stroke-width="0.846" stroke-miterlimit="10" cx="1146.702" cy="835.175" r="28.67"/>
<circle opacity="0.6" fill="#C0DFE2" stroke="#594A42" stroke-width="0.846" stroke-miterlimit="10" cx="1062.057" cy="835.175" r="28.671"/>
<circle opacity="0.6" fill="#C0DFE2" stroke="#594A42" stroke-width="0.846" stroke-miterlimit="10" cx="977.414" cy="835.175" r="28.669"/>
<path opacity="0.6" fill="#C0DFE2" stroke="#594A42" stroke-width="0.846" stroke-miterlimit="10" d="M1044.306,908.343
	c0,15.834-12.836,28.672-28.67,28.672c-15.836,0-28.67-12.838-28.67-28.672c0-15.832,12.834-28.668,28.67-28.668
	C1031.47,879.675,1044.306,892.511,1044.306,908.343z"/>
<rect x="771.663" y="962.743" opacity="0.7" fill="none" stroke="#594A42" stroke-width="0.846" stroke-miterlimit="10" width="549.422" height="109.004"/>
<line opacity="0.6" fill="#C0DFE2" stroke="#594A42" stroke-width="0.846" stroke-miterlimit="10" x1="1132.517" y1="962.743" x2="1132.517" y2="1071.747"/>
<rect x="1189.243" y="980.415" opacity="0.6" fill="#C0DFE2" stroke="#594A42" stroke-width="0.846" stroke-miterlimit="10" width="78.07" height="78.072"/>
<rect x="1008.702" y="980.415" opacity="0.6" fill="#C0DFE2" stroke="#594A42" stroke-width="0.846" stroke-miterlimit="10" width="78.068" height="78.072"/>
<rect x="906.636" y="980.415" opacity="0.6" fill="#C0DFE2" stroke="#594A42" stroke-width="0.846" stroke-miterlimit="10" width="78.068" height="78.072"/>
<rect x="804.571" y="980.415" opacity="0.6" fill="#C0DFE2" stroke="#594A42" stroke-width="0.846" stroke-miterlimit="10" width="78.068" height="78.072"/>
<text transform="matrix(1 0 0 1 151.1875 1033.874)" fill="#231F20" font-family="'Roboto-BoldCondensed'" font-size="17">P1   </text>
<text transform="matrix(1 0 0 1 39.1646 1033.874)" fill="#231F20" font-family="'Roboto-BoldCondensed'" font-size="17">P2   </text>
<text transform="matrix(1 0 0 1 119.29 943.1904)" fill="#231F20" font-family="'Roboto-BoldCondensed'" font-size="17">B11</text>
<text transform="matrix(1 0 0 1 48.0029 943.1904)" fill="#231F20" font-family="'Roboto-BoldCondensed'" font-size="17">B12</text>
<text transform="matrix(1 0 0 1 692.2236 1030.1592)" fill="#231F20" font-family="'Roboto-BoldCondensed'" font-size="17">SEP1</text>
<text transform="matrix(1 0 0 1 615.4082 1025.1094)" fill="#231F20" font-family="'Roboto-BoldCondensed'" font-size="17">V1</text>
<text transform="matrix(1 0 0 1 544.1211 1025.1094)" fill="#231F20" font-family="'Roboto-BoldCondensed'" font-size="17">V2</text>
<text transform="matrix(1 0 0 1 462.6484 1025.1094)" fill="#231F20" font-family="'Roboto-BoldCondensed'" font-size="17">V3</text>
<g opacity="0.6">
</g>
<text transform="matrix(1 0 0 1 391.3633 1025.1094)" fill="#231F20" font-family="'Roboto-BoldCondensed'" font-size="17">V4</text>
<text transform="matrix(1 0 0 1 663.2363 936.6729)" fill="#231F20" font-family="'Roboto-BoldCondensed'" font-size="17">BN1</text>
<text transform="matrix(1 0 0 1 588.1846 935.6514)" fill="#231F20" font-family="'Roboto-BoldCondensed'" font-size="17">BV1</text>
<text transform="matrix(1 0 0 1 517.7012 949.9033)" fill="#231F20" font-family="'Roboto-BoldCondensed'" font-size="17">BN3</text>
<text transform="matrix(1 0 0 1 518.7168 903.082)" fill="#231F20" font-family="'Roboto-BoldCondensed'" font-size="17">BN2</text>
<text transform="matrix(1 0 0 1 443.6646 934.6348)" fill="#231F20" font-family="'Roboto-BoldCondensed'" font-size="17">BV2</text>
<text transform="matrix(1 0 0 1 369.1123 938.708)" fill="#231F20" font-family="'Roboto-BoldCondensed'" font-size="17">BN4</text>
<text transform="matrix(1 0 0 1 689.3027 839.9863)" fill="#231F20" font-family="'Roboto-BoldCondensed'" font-size="17">V5</text>
<text transform="matrix(1 0 0 1 691.3389 729.0527)" fill="#231F20" font-family="'Roboto-BoldCondensed'" font-size="17">V6</text>
<text transform="matrix(1 0 0 1 717.1055 584.5332)" fill="#231F20" font-family="'Roboto-BoldCondensed'" font-size="17">S1</text>
<text transform="matrix(1 0 0 1 656.0029 584.5332)" fill="#231F20" font-family="'Roboto-BoldCondensed'" font-size="17">S2</text>
<text transform="matrix(1 0 0 1 576.5693 584.5332)" fill="#231F20" font-family="'Roboto-BoldCondensed'" font-size="17">S3</text>
<text transform="matrix(1 0 0 1 511.3926 584.5332)" fill="#231F20" font-family="'Roboto-BoldCondensed'" font-size="17">S4</text>
<text transform="matrix(1 0 0 1 430.5352 583.7568)" fill="#231F20" font-family="'Roboto-BoldCondensed'" font-size="17">S5</text>
<text transform="matrix(1 0 0 1 367.3945 581.7197)" fill="#231F20" font-family="'Roboto-BoldCondensed'" font-size="17">S6</text>
<text transform="matrix(1 0 0 1 596.6367 815.5635)" fill="#231F20" font-family="'Roboto-BoldCondensed'" font-size="17">B1</text>
<text transform="matrix(1 0 0 1 592.5654 724.9834)" fill="#231F20" font-family="'Roboto-BoldCondensed'" font-size="17">B4</text>
<text transform="matrix(1 0 0 1 504.9824 815.5635)" fill="#231F20" font-family="'Roboto-BoldCondensed'" font-size="17">B2</text>
<text transform="matrix(1 0 0 1 503.9658 724.9834)" fill="#231F20" font-family="'Roboto-BoldCondensed'" font-size="17">B5</text>
<text transform="matrix(1 0 0 1 419.438 815.5635)" fill="#231F20" font-family="'Roboto-BoldCondensed'" font-size="17">B3</text>
<text transform="matrix(1 0 0 1 422.4951 724.9834)" fill="#231F20" font-family="'Roboto-BoldCondensed'" font-size="17">B6</text>
<text transform="matrix(1 0 0 1 244.1704 581.7197)" fill="#231F20" font-family="'Roboto-BoldCondensed'" font-size="17">S7</text>
<text transform="matrix(1 0 0 1 183.0664 583.7568)" fill="#231F20" font-family="'Roboto-BoldCondensed'" font-size="17">S8</text>
<text transform="matrix(1 0 0 1 108.7241 582.7383)" fill="#231F20" font-family="'Roboto-BoldCondensed'" font-size="17">S9</text>
<text transform="matrix(1 0 0 1 40.4927 583.7568)" fill="#231F20" font-family="'Roboto-BoldCondensed'" font-size="17">S10</text>
<text transform="matrix(1 0 0 1 31.791 658.8271)" fill="#231F20" font-family="'Roboto-BoldCondensed'" font-size="17">P3</text>
<text transform="matrix(1 0 0 1 103.7813 658.8271)" fill="#231F20" font-family="'Roboto-BoldCondensed'" font-size="17">P4</text>
<text transform="matrix(1 0 0 1 238.0698 1024.0508)" font-family="'Roboto-Regular'" font-size="38.7588">BINA</text>
<text transform="matrix(1 0 0 1 340.165 854.2354)" fill="#231F20" font-family="'Roboto-BoldCondensed'" font-size="17">B7</text>
<text transform="matrix(1 0 0 1 277.0259 854.2354)" fill="#231F20" font-family="'Roboto-BoldCondensed'" font-size="17">B8</text>
<text transform="matrix(1 0 0 1 215.9219 854.2354)" fill="#231F20" font-family="'Roboto-BoldCondensed'" font-size="17">B9</text>
<text transform="matrix(1 0 0 1 143.1689 854.2354)" fill="#231F20" font-family="'Roboto-BoldCondensed'" font-size="17">B10</text>
<text transform="matrix(1 0 0 1 119.8799 759.585)" fill="#231F20" font-family="'Roboto-BoldCondensed'" font-size="17">B13</text>
<text transform="matrix(1 0 0 1 48.5938 759.585)" fill="#231F20" font-family="'Roboto-BoldCondensed'" font-size="17">B14</text>
<text transform="matrix(1 0 0 1 322.2969 718.873)" fill="#231F20" font-family="'Roboto-BoldCondensed'" font-size="17">BN5</text>
<text transform="matrix(1 0 0 1 215.3667 718.873)" fill="#231F20" font-family="'Roboto-BoldCondensed'" font-size="17">BN6</text>
<text transform="matrix(1 0 0 1 558.9795 658.8232)" fill="#231F20" font-family="'Roboto-BoldCondensed'" font-size="17">P6</text>
<text transform="matrix(1 0 0 1 412.3325 658.8232)" fill="#231F20" font-family="'Roboto-BoldCondensed'" font-size="17">P5</text>
<text transform="matrix(1 0 0 1 266.9917 104.75)" font-family="'Roboto-Regular'" font-size="44.0441">ŠANK</text>
<text transform="matrix(1 0 0 1 66.7056 68.4238)" fill="#231F20" font-family="'Roboto-BoldCondensed'" font-size="17">SEP7</text>
<text transform="matrix(1 0 0 1 66.7056 164.1528)" fill="#231F20" font-family="'Roboto-BoldCondensed'" font-size="17">SEP8</text>
<text transform="matrix(1 0 0 1 37.1895 293.3467)" fill="#231F20" font-family="'Roboto-BoldCondensed'" font-size="17">S26</text>
<text transform="matrix(1 0 0 1 137.9468 290.293)" fill="#231F20" font-family="'Roboto-BoldCondensed'" font-size="17">S27</text>
<text transform="matrix(1 0 0 1 218.3506 287.2412)" fill="#231F20" font-family="'Roboto-BoldCondensed'" font-size="17">S28</text>
<text transform="matrix(1 0 0 1 39.228 391.0479)" fill="#231F20" font-family="'Roboto-BoldCondensed'" font-size="17">S19</text>
<text transform="matrix(1 0 0 1 139.9849 390.0317)" fill="#231F20" font-family="'Roboto-BoldCondensed'" font-size="17">S20</text>
<text transform="matrix(1 0 0 1 218.3535 388.0005)" fill="#231F20" font-family="'Roboto-BoldCondensed'" font-size="17">S21</text>
<text transform="matrix(1 0 0 1 41.2637 492.8286)" fill="#231F20" font-family="'Roboto-BoldCondensed'" font-size="17">S11</text>
<text transform="matrix(1 0 0 1 151.1821 495.8779)" fill="#231F20" font-family="'Roboto-BoldCondensed'" font-size="17">S12</text>
<text transform="matrix(1 0 0 1 239.7246 496.9004)" fill="#231F20" font-family="'Roboto-BoldCondensed'" font-size="17">S13</text>
<text transform="matrix(1 0 0 1 500.2695 76.562)" fill="#231F20" font-family="'Roboto-BoldCondensed'" font-size="17">SEP6</text>
<text transform="matrix(1 0 0 1 591.9248 76.562)" fill="#231F20" font-family="'Roboto-BoldCondensed'" font-size="17">SEP5</text>
<text transform="matrix(1 0 0 1 683.5801 76.562)" fill="#231F20" font-family="'Roboto-BoldCondensed'" font-size="17">SEP4</text>
<text transform="matrix(1 0 0 1 438.1831 264.8506)" fill="#231F20" font-family="'Roboto-BoldCondensed'" font-size="17">B16</text>
<text transform="matrix(1 0 0 1 355.7461 288.2578)" fill="#231F20" font-family="'Roboto-BoldCondensed'" font-size="17">S29</text>
<text transform="matrix(1 0 0 1 355.7461 388.0601)" fill="#231F20" font-family="'Roboto-BoldCondensed'" font-size="17">S22</text>
<text transform="matrix(1 0 0 1 434.1157 368.6636)" fill="#231F20" font-family="'Roboto-BoldCondensed'" font-size="17">S23</text>
<text transform="matrix(1 0 0 1 498.2324 252.6416)" fill="#231F20" font-family="'Roboto-BoldCondensed'" font-size="17">S30</text>
<text transform="matrix(1 0 0 1 574.6113 252.6416)" fill="#231F20" font-family="'Roboto-BoldCondensed'" font-size="17">S31</text>
<text transform="matrix(1 0 0 1 512.4785 341.1807)" fill="#231F20" font-family="'Roboto-BoldCondensed'" font-size="17">S24</text>
<text transform="matrix(1 0 0 1 574.5996 341.1807)" fill="#231F20" font-family="'Roboto-BoldCondensed'" font-size="17">S25</text>
<text transform="matrix(1 0 0 1 675.3223 248.5703)" fill="#231F20" font-family="'Roboto-BoldCondensed'" font-size="17">SEP3</text>
<text transform="matrix(1 0 0 1 675.3193 340.1646)" fill="#231F20" font-family="'Roboto-BoldCondensed'" font-size="17">SEP2</text>
<text transform="matrix(1 0 0 1 633.5908 421.5854)" fill="#231F20" font-family="'Roboto-BoldCondensed'" font-size="17">B15</text>
<text transform="matrix(1 0 0 1 699.7461 488.7573)" fill="#231F20" font-family="'Roboto-BoldCondensed'" font-size="17">S18</text>
<text transform="matrix(1 0 0 1 612.2197 492.8267)" fill="#231F20" font-family="'Roboto-BoldCondensed'" font-size="17">S17</text>
<text transform="matrix(1 0 0 1 528.7666 493.8428)" fill="#231F20" font-family="'Roboto-BoldCondensed'" font-size="17">S16</text>
<text transform="matrix(1 0 0 1 446.3252 493.8447)" fill="#231F20" font-family="'Roboto-BoldCondensed'" font-size="17">S15</text>
<text transform="matrix(1 0 0 1 360.8384 495.8823)" fill="#231F20" font-family="'Roboto-BoldCondensed'" font-size="17">S14</text>
<text transform="matrix(1 0 0 1 822.3867 1029.0371)" fill="#231F20" font-family="'Roboto-BoldCondensed'" font-size="17">SEP11</text>
<text transform="matrix(1 0 0 1 922.4492 1029.0371)" fill="#231F20" font-family="'Roboto-BoldCondensed'" font-size="17">SEP10</text>
<text transform="matrix(1 0 0 1 1027.3936 1027.0459)" fill="#231F20" font-family="'Roboto-BoldCondensed'" font-size="17">SEP9</text>
<text transform="matrix(1 0 0 1 1214.9746 1022.624)" fill="#231F20" font-family="'Roboto-BoldCondensed'" font-size="17">S32</text>
<text transform="matrix(1 0 0 1 879.9209 699.9658)" fill="#231F20" font-family="'Roboto-BoldCondensed'" font-size="17">B33</text>
<text transform="matrix(1 0 0 1 960.5439 689.127)" fill="#231F20" font-family="'Roboto-BoldCondensed'" font-size="17">B30</text>
<text transform="matrix(1 0 0 1 1047.7676 687.2402)" fill="#231F20" font-family="'Roboto-BoldCondensed'" font-size="17">B27</text>
<text transform="matrix(1 0 0 1 1136.876 689.123)" fill="#231F20" font-family="'Roboto-BoldCondensed'" font-size="17">B24</text>
<text transform="matrix(1 0 0 1 1221.7441 689.127)" fill="#231F20" font-family="'Roboto-BoldCondensed'" font-size="17">B21</text>
<text transform="matrix(1 0 0 1 1296.7051 699.0264)" fill="#231F20" font-family="'Roboto-BoldCondensed'" font-size="17">B18</text>
<text transform="matrix(1 0 0 1 1296.7051 767.8613)" fill="#231F20" font-family="'Roboto-BoldCondensed'" font-size="17">B17</text>
<text transform="matrix(1 0 0 1 1211.8408 770.6904)" fill="#231F20" font-family="'Roboto-BoldCondensed'" font-size="17">B20</text>
<text transform="matrix(1 0 0 1 1129.8037 769.7441)" fill="#231F20" font-family="'Roboto-BoldCondensed'" font-size="17">B23</text>
<text transform="matrix(1 0 0 1 1047.2939 772.1025)" fill="#231F20" font-family="'Roboto-BoldCondensed'" font-size="17">B26</text>
<text transform="matrix(1 0 0 1 961.4854 768.8047)" fill="#231F20" font-family="'Roboto-BoldCondensed'" font-size="17">B29</text>
<text transform="matrix(1 0 0 1 878.9775 769.2754)" fill="#231F20" font-family="'Roboto-BoldCondensed'" font-size="17">B32</text>
<text transform="matrix(1 0 0 1 795.998 770.6885)" fill="#231F20" font-family="'Roboto-BoldCondensed'" font-size="17">B35</text>
<text transform="matrix(1 0 0 1 797.3115 840.9395)" fill="#231F20" font-family="'Roboto-BoldCondensed'" font-size="17">B34</text>
<text transform="matrix(1 0 0 1 798.2549 911.1914)" fill="#231F20" font-family="'Roboto-BoldCondensed'" font-size="17">B38</text>
<text transform="matrix(1 0 0 1 896.4209 914.4902)" fill="#231F20" font-family="'Roboto-BoldCondensed'" font-size="17">B37</text>
<text transform="matrix(1 0 0 1 1003.4473 914.4902)" fill="#231F20" font-family="'Roboto-BoldCondensed'" font-size="17">B36</text>
<text transform="matrix(1 0 0 1 879.4502 840.001)" fill="#231F20" font-family="'Roboto-BoldCondensed'" font-size="17">B31</text>
<text transform="matrix(1 0 0 1 965.7285 839.5264)" fill="#231F20" font-family="'Roboto-BoldCondensed'" font-size="17">B28</text>
<text transform="matrix(1 0 0 1 1049.1826 840.4736)" fill="#231F20" font-family="'Roboto-BoldCondensed'" font-size="17">B25</text>
<text transform="matrix(1 0 0 1 1135.4609 840.9414)" fill="#231F20" font-family="'Roboto-BoldCondensed'" font-size="17">B22</text>
<text transform="matrix(1 0 0 1 1220.7959 841.8809)" fill="#231F20" font-family="'Roboto-BoldCondensed'" font-size="17">B19</text>
<g>
	<g>
		<path fill="#51312A" d="M865.305,552.361V83.533h473.42v468.828H865.305z M1278.595,492.208V143.824H925.259v348.384H1278.595z"/>
		<path fill="#FFFFFF" d="M1332.702,89.556c0,152.705,0,304.54,0,456.783c-153.904,0-307.436,0-461.375,0
			c0-152.347,0-304.358,0-456.783C1025.19,89.556,1178.717,89.556,1332.702,89.556 M919.236,498.23c122.294,0,243.746,0,365.381,0
			c0-120.442,0-240.378,0-360.429c-122.072,0-243.701,0-365.381,0C919.236,258.198,919.236,377.956,919.236,498.23 M1344.747,77.511
			h-12.045H871.327h-12.044v12.045v456.783v12.045h12.044h461.375h12.045v-12.045V89.556V77.511L1344.747,77.511z M931.281,149.847
			h341.291v336.34H931.281V149.847L931.281,149.847z"/>
	</g>
	<g>
		<path fill="#51312A" d="M1095.69,457.856c-17.464,0.001-35.059-2.857-52.296-8.494c-30.976-10.127-46.683-32.243-46.683-65.735
			c-0.001-13.996,0.008-27.993,0.017-41.989c0.021-31.476,0.041-64.022-0.056-96.028c-0.094-29.686,13.946-50.838,40.603-61.172
			c19.082-7.397,38.701-11.148,58.311-11.148c19.245,0,38.688,3.613,57.787,10.738c26.807,9.999,41.581,32.095,41.602,62.218
			c0.003,5.321,0,31.195,0,31.195h-70.673v-6.022c0-2.674,0.005-5.329,0.009-7.971c0.009-5.646,0.018-11.233-0.016-16.819
			c-0.098-15.068-4.806-20.545-19.372-22.535c-2.434-0.334-4.944-0.503-7.465-0.503c-2.536,0-5.064,0.172-7.516,0.509
			c-14.622,2.009-19.321,7.484-19.341,22.534c-0.062,48.863-0.06,94.011,0.005,138.022c0.021,14.819,4.595,20.13,18.82,21.857
			c2.468,0.3,5.059,0.451,7.699,0.451c4.281,0,8.669-0.391,13.04-1.163c8.884-1.568,13.695-7.283,13.915-16.526
			c0.273-11.692,0.214-23.256,0.151-35.498c-0.017-3.318-0.034-6.66-0.045-10.032h-28.237v-49.331h99.024c0,0,0.003,77.391,0,88.852
			c0,33.308-16.351,56.207-47.285,66.221C1130.523,455.04,1113.028,457.856,1095.69,457.856z"/>
		<path fill="#FFFFFF" d="M1095.586,179.312c18.613-0.001,37.24,3.479,55.683,10.358c25.129,9.373,37.665,29.651,37.684,56.579
			c0.005,8.077,0,16.157,0,25.169c-19.74,0-38.604,0-58.628,0c0-8.403,0.042-16.614-0.007-24.826
			c-0.117-17.938-6.913-26.052-24.579-28.466c-2.716-0.372-5.498-0.558-8.28-0.558c-2.802,0-5.604,0.188-8.337,0.564
			c-17.61,2.419-24.519,10.588-24.542,28.492c-0.058,46.011-0.063,92.025,0.005,138.039c0.025,17.644,6.682,25.71,24.117,27.827
			c2.767,0.336,5.59,0.495,8.425,0.495c4.732,0,9.497-0.444,14.087-1.255c11.747-2.074,18.604-10.357,18.889-22.313
			c0.396-16.914,0.099-33.842,0.099-51.696c-9.406,0-18.593,0-28.228,0c0-12.907,0-24.882,0-37.286c28.9,0,57.561,0,86.979,0
			c0,10.657,0,20.956,0,31.256c0,17.191,0.005,34.382,0,51.571c0,30.501-14.074,51.092-43.117,60.493
			c-16.633,5.382-33.393,8.079-50.146,8.079c-16.854,0-33.702-2.729-50.423-8.196c-28.735-9.395-42.532-29.729-42.532-60.012
			c-0.003-46.014,0.1-92.024-0.039-138.036c-0.085-26.804,12.283-46.051,36.757-55.538
			C1057.992,182.865,1076.781,179.312,1095.586,179.312 M1095.593,167.267v12.045l-0.002-12.045
			c-20.364,0.001-40.715,3.889-60.492,11.556c-14.505,5.623-25.709,14.335-33.301,25.894c-7.446,11.336-11.197,25.101-11.147,40.913
			c0.097,31.989,0.076,64.527,0.057,95.994c-0.009,14.001-0.018,28.003-0.018,42.005c0,35.876,17.578,60.586,50.834,71.459
			c17.841,5.834,36.065,8.792,54.166,8.792c17.968,0,36.087-2.915,53.854-8.663c33.662-10.896,51.453-35.777,51.453-71.953
			c0.004-11.458,0.003-22.919,0.002-34.381l-0.002-17.19v-31.256v-12.044h-12.044h-86.979h-12.045v12.044v37.286v12.045h12.045
			h16.218c0.006,1.356,0.013,2.704,0.02,4.04c0.063,12.198,0.122,23.72-0.149,35.33c-0.151,6.356-2.909,9.669-8.942,10.733
			c-4.025,0.711-8.061,1.072-11.992,1.072c-2.399,0-4.745-0.138-6.974-0.408c-5.546-0.673-9.211-2.01-10.895-3.974
			c-1.736-2.025-2.621-6.033-2.629-11.914c-0.064-44.021-0.066-89.163-0.006-138.007c0.017-12.036,2.526-14.979,14.137-16.574
			c2.184-0.301,4.436-0.453,6.698-0.453c2.247,0,4.483,0.15,6.646,0.446c11.575,1.582,14.091,4.532,14.17,16.612
			c0.033,5.55,0.024,11.001,0.015,16.771c-0.004,2.643-0.009,5.3-0.009,7.976v12.044h12.045h58.628h12.044v-12.044l0.002-8.938
			c0.001-5.591,0.002-10.915-0.002-16.237c-0.011-15.96-3.842-29.907-11.387-41.454c-7.838-11.996-19.321-20.879-34.132-26.403
			C1135.703,171.008,1115.555,167.267,1095.593,167.267L1095.593,167.267z"/>
	</g>
</g>
<rect x="1341" y="815.004" opacity="0.6" fill="#C0DFE2" stroke="#594A42" stroke-width="0.846" stroke-miterlimit="10" width="59" height="148"/>
<text transform="matrix(0 -1 1 0 1388.8799 943.7656)" font-family="'Roboto-Regular'" font-size="50.9902">ULAZ</text>
<polyline fill="none" stroke="#221F1F" stroke-width="0.7321" stroke-miterlimit="10" points="1400,635 769.993,635 769.993,0 "/>
<rect fill="none" stroke="#51312A" stroke-width="0.5" stroke-miterlimit="10" width="1400" height="1080"/>
</svg>
